<svg width="32" height="32" viewBox="0 0 32 32" fill="none" xmlns="http://www.w3.org/2000/svg">
<path opacity="0.997" fill-rule="evenodd" clip-rule="evenodd" d="M15.7002 0.0019261C18.4959 -0.0397924 21.1256 0.596192 23.5893 1.90988C26.0533 3.2534 28.04 5.11074 29.5493 7.48194C31.0333 9.85764 31.8448 12.4487 31.9835 15.2551C32.096 17.8088 31.6319 20.2515 30.591 22.5833C29.4826 25.0056 27.8764 27.0357 25.7723 28.6736C23.7544 30.2237 21.4877 31.241 18.9721 31.7252C16.7895 32.1281 14.6153 32.0879 12.4493 31.6049C10.1054 31.0645 7.99398 30.0577 6.11499 28.5846C3.99735 26.9069 2.39629 24.8314 1.31192 22.3582C0.367269 20.158 -0.0672326 17.8601 0.00841256 15.4645C0.116357 12.5534 0.945261 9.86984 2.49502 7.41389C3.94217 5.16418 5.82587 3.3784 8.14616 2.05644C10.4927 0.747049 13.0107 0.0622268 15.7002 0.0019261ZM15.6531 1.69265C18.095 1.64355 20.4019 2.17485 22.5737 3.28654C24.8744 4.49287 26.7232 6.19317 28.1201 8.3875C29.4749 10.5583 30.2026 12.926 30.3031 15.4906C30.3863 18.0928 29.8121 20.5391 28.5808 22.8293C27.424 24.9336 25.8421 26.6496 23.8353 27.9774C21.8221 29.2865 19.6147 30.0472 17.2131 30.2596C17.0667 30.2723 16.9202 30.2819 16.7734 30.2884C16.7716 28.4284 16.7734 26.5684 16.7786 24.7085C17.9065 24.1612 19.0338 23.6124 20.1604 23.0622C20.7419 22.7907 21.3248 22.522 21.9089 22.2561C22.2917 22.0734 22.6512 21.8553 22.9873 21.6018C23.7674 20.976 24.2517 20.1691 24.44 19.1809C24.4702 19.0024 24.4877 18.8227 24.4923 18.6418C24.4958 14.8834 24.4958 11.1251 24.4923 7.36678C24.4688 7.07276 24.3336 6.84684 24.0866 6.68892C23.8495 6.55335 23.6035 6.53414 23.3485 6.63134C23.2961 6.65228 23.2438 6.67322 23.1914 6.69416C20.7822 7.86332 18.3733 9.03322 15.9646 10.2038C13.4734 8.99459 10.9824 7.78454 8.49166 6.57376C8.2018 6.48221 7.93482 6.52582 7.69072 6.70463C7.49587 6.86307 7.38855 7.06805 7.36877 7.31967C7.36526 11.0937 7.36526 14.8677 7.36877 18.6418C7.4186 19.7327 7.83829 20.6514 8.62777 21.3977C8.92245 21.6682 9.25225 21.888 9.61718 22.0572C11.4396 22.9396 13.2613 23.8233 15.0825 24.7085C15.0894 26.5667 15.0894 28.4249 15.0825 30.2832C12.3958 30.0971 9.95463 29.236 7.75877 27.7C5.72619 26.2524 4.16706 24.4072 3.08133 22.1645C2.00754 19.8895 1.55555 17.4956 1.72548 14.9829C1.92394 12.3492 2.77373 9.95359 4.2749 7.79601C5.71666 5.76054 7.55675 4.19628 9.79517 3.10333C11.6472 2.21766 13.5999 1.74745 15.6531 1.69265ZM9.05704 8.73297C11.066 9.70506 13.0745 10.6787 15.0825 11.6538C15.0877 12.6815 15.0894 13.7092 15.0877 14.7369C14.1245 14.736 13.1612 14.7369 12.198 14.7395C11.8563 14.7863 11.6199 14.9687 11.4887 15.2865C11.3762 15.6419 11.4521 15.9498 11.7164 16.2104C11.8513 16.3284 12.0084 16.3982 12.1875 16.4197C13.1543 16.4224 14.121 16.4233 15.0877 16.4224C15.0894 18.5475 15.0877 20.6727 15.0825 22.7979C13.5894 22.0733 12.0957 21.35 10.6014 20.6282C9.86574 20.2293 9.38323 19.6265 9.15389 18.8197C9.10101 18.6171 9.0696 18.4112 9.05966 18.2021C9.05704 15.0457 9.05615 11.8893 9.05704 8.73297ZM22.7936 8.76438C22.8005 10.3364 22.804 11.9103 22.804 13.4858C22.8032 15.0597 22.8023 16.6335 22.8014 18.2073C22.7473 19.0543 22.3992 19.7514 21.757 20.2985C21.6027 20.4248 21.4369 20.5347 21.2597 20.6282C19.7654 21.35 18.2717 22.0733 16.7786 22.7979C16.7734 20.6727 16.7716 18.5475 16.7734 16.4224C17.7628 16.4233 18.7522 16.4224 19.7416 16.4197C20.0214 16.3816 20.2351 16.2429 20.3829 16.0036C20.5308 15.7253 20.5325 15.4461 20.3881 15.1661C20.2411 14.9184 20.0238 14.7762 19.7364 14.7395C18.7487 14.7369 17.761 14.736 16.7734 14.7369C16.7716 13.7197 16.7734 12.7024 16.7786 11.6852C18.7847 10.7128 20.7897 9.73919 22.7936 8.76438Z" fill="#EFE4D6"/>
</svg>
