<svg width="128" height="128" viewBox="0 0 128 128" fill="none" xmlns="http://www.w3.org/2000/svg">
<circle cx="64" cy="64" r="64" fill="#F2F2F2"/>
<path d="M52.5928 4.57829C46.3047 5.88026 41.0418 7.86748 34.6171 11.2252C27.1671 15.1311 16.0262 26.0951 11.7886 33.7013C1.80969 51.5178 1.1262 71.8011 9.80649 90.2342C17.3932 106.269 32.7033 118.672 50.0639 122.784C56.9671 124.428 68.2446 124.702 75.1478 123.469C93.1235 120.18 109.732 107.571 118.139 90.7824C123.539 79.9555 125.521 65.908 123.402 53.7105C119.369 30.4807 102.761 12.1845 79.7955 5.60617C73.3024 3.68747 59.0175 3.13927 52.5928 4.57829ZM76.5148 11.3622C83.2813 13.1439 87.9974 15.1996 93.3286 18.6944C105.153 26.5062 112.808 37.2646 116.704 51.8604C118.276 57.8906 118.071 70.9103 116.294 77.6257C110.963 97.4979 94.9006 112.779 75.0111 116.89C66.1942 118.741 66.946 119.631 66.946 107.502V96.9497L77.8818 91.6733C89.9795 85.7801 92.235 84.2041 94.4905 80.0241C95.9258 77.2831 95.9942 76.3922 96.1992 54.3958C96.4043 34.3866 96.2676 31.3715 95.3107 29.8639C94.7639 28.9731 93.8754 28.2193 93.3969 28.2193C92.9868 28.2193 86.152 31.3029 78.2235 35.1403L63.8703 41.9928L49.5854 35.1403C41.7937 31.3029 34.7538 28.2193 34.0703 28.2193C33.3868 28.2193 32.4983 28.8361 32.0882 29.5213C31.1313 31.3715 31.1996 74.268 32.1565 77.7627C33.5235 82.765 36.8042 85.4375 49.312 91.3992L60.7946 96.9497V107.571V118.124L56.8987 117.644C43.6391 116 29.696 107.914 21.6992 97.2923C14.0441 87.2877 10.9001 78.585 10.4216 66.2506C9.94318 54.3273 12.062 45.6246 17.8033 36.0312C20.6056 31.3029 27.5771 23.6282 31.9515 20.4075C38.5129 15.6108 47.9451 11.7049 56.3519 10.3344C60.9997 9.5806 71.9354 10.1288 76.5148 11.3622ZM49.9955 42.404L60.7946 47.6804V53.3679V59.0555H55.2584C48.6969 59.0555 47.1249 59.7407 47.1249 62.5502C47.1249 65.1542 48.9703 65.908 55.7368 65.908H60.7946V77.5572C60.7946 84.6152 60.5212 89.2064 60.1111 89.2064C58.6075 89.2064 42.4772 80.7778 40.7684 78.9962C39.6749 77.9683 38.5813 75.9126 38.2395 74.405C37.2143 70.088 37.351 37.1276 38.3762 37.1276C38.8547 37.1276 44.1175 39.5259 49.9955 42.404ZM89.5011 56.246C89.5011 79.9555 90.3896 77.8998 76.7199 84.9578L66.946 89.9601V77.8998V65.908H72.0038C78.7703 65.908 80.6157 65.1542 80.6157 62.5502C80.6157 59.7407 79.0437 59.0555 72.4822 59.0555H66.946V53.3679V47.6118L77.7451 42.404C83.6231 39.5259 88.6809 37.1276 89.0226 37.1276C89.296 37.1276 89.5011 45.6932 89.5011 56.246Z" fill="#33463F"/>
</svg>
